/* XPM */
static char * bar_work_color_xpm[] = {
"20 20 115 2",
"  	c None",
". 	c #FFFFFF",
"+ 	c #C7D7F8",
"@ 	c #4C81E9",
"# 	c #3C75E7",
"$ 	c #DFE8FB",
"% 	c #FCFCFC",
"& 	c #E3EAF9",
"* 	c #4B7FE9",
"= 	c #3E78E8",
"- 	c #6E98ED",
"; 	c #F9F9F9",
"> 	c #9FBBF0",
", 	c #437BE9",
"' 	c #558BEA",
") 	c #CEDBF4",
"! 	c #F5F5F5",
"~ 	c #9DB8EE",
"{ 	c #77A1EC",
"] 	c #D0DBF2",
"^ 	c #F3F3F3",
"/ 	c #E3EAF5",
"( 	c #99C0F8",
"_ 	c #6DA7FA",
": 	c #7FB1F9",
"< 	c #C0D6F6",
"[ 	c #DFE9F4",
"} 	c #B0D1F7",
"| 	c #73A9FA",
"1 	c #6DA6FA",
"2 	c #9CC0F8",
"3 	c #E8EDF4",
"4 	c #C4D8F5",
"5 	c #3B8CFD",
"6 	c #258AFF",
"7 	c #2C96FF",
"8 	c #2A94FF",
"9 	c #1F83FE",
"0 	c #4893FC",
"a 	c #2082FF",
"b 	c #2890FF",
"c 	c #2590FF",
"d 	c #1E81FF",
"e 	c #407FFC",
"f 	c #CBD8F4",
"g 	c #F2F2F2",
"h 	c #E0E8F3",
"i 	c #378AFD",
"j 	c #1D7EFF",
"k 	c #1867FE",
"l 	c #B1C0F6",
"m 	c #F4F4F4",
"n 	c #89B6F8",
"o 	c #238BFF",
"p 	c #176BFE",
"q 	c #96A7F7",
"r 	c #F0F0F0",
"s 	c #458EFC",
"t 	c #3967FC",
"u 	c #EAEAEA",
"v 	c #3181FD",
"w 	c #ECECEC",
"x 	c #307CFC",
"y 	c #1C78FB",
"z 	c #186DFD",
"A 	c #4B65EB",
"B 	c #D7DBF0",
"C 	c #F1F1F1",
"D 	c #6696FA",
"E 	c #1769FD",
"F 	c #1769FC",
"G 	c #1A41E9",
"H 	c #566FE5",
"I 	c #A9C0F7",
"J 	c #1768FD",
"K 	c #1664FD",
"L 	c #176AFD",
"M 	c #1252F6",
"N 	c #104EF2",
"O 	c #5970DC",
"P 	c #F7F7F7",
"Q 	c #EAEFFC",
"R 	c #1562FC",
"S 	c #1560FC",
"T 	c #155FFC",
"U 	c #145DFC",
"V 	c #145CF3",
"W 	c #4965D5",
"X 	c #FBFBFB",
"Y 	c #1666F5",
"Z 	c #1566FC",
"` 	c #1460FC",
" .	c #145EFC",
"..	c #135DFC",
"+.	c #135CFC",
"@.	c #1355E2",
"#.	c #B0BFEA",
"$.	c #FEFEFE",
"%.	c #396DDE",
"&.	c #135CED",
"*.	c #1359ED",
"=.	c #1457E4",
"-.	c #356BDE",
";.	c #1B5BDF",
">.	c #145AE4",
",.	c #145AE0",
"'.	c #ECF2FB",
").	c #93B1F0",
"!.	c #8AAAED",
"~.	c #BECFF4",
"{.	c #CCDAF4",
"].	c #92B2E9",
"^.	c #A0BBE9",
"/.	c #F0F4FB",
"(.	c #EBEBEB",
". . . . . . . . . . . . . . . . . . . . ",
". . . . . . . . . . + @ # $ . . . . . . ",
"% % % % % % % % % & * = - % % % % % % % ",
"; ; ; ; ; ; ; ; ; > , ' ) ; ; ; ; ; ; ; ",
"! ! ! ! ! ! ! ! ! ~ { ] ! ! ! ! ! ! ! ! ",
"^ ^ ^ ^ ^ / ( _ : < [ } | 1 2 3 ^ ^ ^ ^ ",
"^ ^ ^ ^ 4 5 6 7 8 9 0 a b c d e f ^ ^ ^ ",
"g g g h i j j j j j j j j j j k l g g g ",
"m m m n o j j j j j j j j j p q m m m m ",
"r r r s j j j j j j j j j j t r r r r r ",
"u u u v j j j j j j j j j j t u u u u u ",
"w w w x j j j j j j j j y z A B w w w w ",
"C C C D j j j j j j y z E F G H C C C C ",
"m m m I y j j j y z J K K L M N O m m m ",
"P P P Q z y z R R S T U U U S V W P P P ",
"X X X X l Y Z `  ...+.+...U R @.#.X X X ",
"$.$.$.$.Q l %.&.*.=.-.;.>.,.%.l '.$.$.$.",
"$.$.$.$.$.$.Q ).!.~.$.{.].^./.$.$.$.$.$.",
". . . . . . . . . . . . . . . . . . . . ",
"(.(.(.(.(.(.(.(.(.(.(.(.(.(.(.(.(.(.(.(."};
