/* XPM */
static char * bar_work_xpm[] = {
"20 20 82 1",
" 	c None",
".	c #FFFFFF",
"+	c #D6D6D6",
"@	c #9F9F9F",
"#	c #E7E7E7",
"$	c #FCFCFC",
"%	c #EAEAEA",
"&	c #737373",
"*	c #959595",
"=	c #F9F9F9",
"-	c #B8B8B8",
";	c #767676",
">	c #858585",
",	c #DADADA",
"'	c #F5F5F5",
")	c #B6B6B6",
"!	c #9D9D9D",
"~	c #F3F3F3",
"{	c #E9E9E9",
"]	c #BABABA",
"^	c #AAAAAA",
"/	c #D3D3D3",
"(	c #CBCBCB",
"_	c #A2A2A2",
":	c #9E9E9E",
"<	c #BBBBBB",
"[	c #ECECEC",
"}	c #D5D5D5",
"|	c #808080",
"1	c #797979",
"2	c #828282",
"3	c #888888",
"4	c #727272",
"5	c #7D7D7D",
"6	c #7C7C7C",
"7	c #717171",
"8	c #7A7A7A",
"9	c #D7D7D7",
"0	c #F2F2F2",
"a	c #7E7E7E",
"b	c #6F6F6F",
"c	c #606060",
"d	c #C1C1C1",
"e	c #F4F4F4",
"f	c #B0B0B0",
"g	c #626262",
"h	c #ABABAB",
"i	c #F0F0F0",
"j	c #848484",
"k	c #6A6A6A",
"l	c #777777",
"m	c #6B6B6B",
"n	c #636363",
"o	c #6C6C6C",
"p	c #DCDCDC",
"q	c #F1F1F1",
"r	c #939393",
"s	c #616161",
"t	c #484848",
"u	c #747474",
"v	c #BFBFBF",
"w	c #5D5D5D",
"x	c #515151",
"y	c #4D4D4D",
"z	c #757575",
"A	c #F7F7F7",
"B	c #EFEFEF",
"C	c #5C5C5C",
"D	c #5B5B5B",
"E	c #5A5A5A",
"F	c #595959",
"G	c #575757",
"H	c #696969",
"I	c #FBFBFB",
"J	c #5E5E5E",
"K	c #585858",
"L	c #FEFEFE",
"M	c #565656",
"N	c #545454",
"O	c #525252",
"P	c #676767",
"Q	c #EBEBEB",
"....................",
"..........+@@#......",
"$$$$$$$$$%@&*$$$$$$$",
"=========-;>,=======",
"''''''''')!,''''''''",
"~~~~~{]@^/#(_:<[~~~~",
"~~~~}|12|&3456789~~~",
"000#abbbbbbbbbbcd000",
"eeef1bbbbbbbbbgheeee",
"iiijbbbbbbbbbbkiiiii",
"%%%lbbbbbbbbbbk%%%%%",
"[[[&bbbbbbbbmnop[[[[",
"qqqrbbbbbbmnsstuqqqq",
"eeevmbbbmncwwsxyzeee",
"AAABnmnCCDEFFFDGHAAA",
"IIIIdJJEFKKKKFCxvIII",
"LLLLBdkMNOPMNNkdBLLL",
"LLLLLBdjjd9dzzdBLLLL",
"....................",
"QQQQQQQQQQQQQQQQQQQQ"};
