/* XPM */
static char * bar_xpm[] = {
"1 20 16 1",
" 	c None",
".	c #FFFFFF",
"+	c #FCFCFC",
"@	c #F9F9F9",
"#	c #F5F5F5",
"$	c #F3F3F3",
"%	c #F2F2F2",
"&	c #F4F4F4",
"*	c #F0F0F0",
"=	c #EAEAEA",
"-	c #ECECEC",
";	c #F1F1F1",
">	c #F7F7F7",
",	c #FBFBFB",
"'	c #FEFEFE",
")	c #EBEBEB",
".",
".",
"+",
"@",
"#",
"$",
"$",
"%",
"&",
"*",
"=",
"-",
";",
"&",
">",
",",
"'",
"'",
".",
")"};
