/* XPM */
static char * menu_selected_xpm[] = {
"1 18 18 1",
" 	c None",
".	c #ECECEC",
"+	c #707070",
"@	c #969696",
"#	c #939393",
"$	c #909090",
"%	c #8D8D8D",
"&	c #8A8A8A",
"*	c #878787",
"=	c #828282",
"-	c #7E7E7E",
";	c #7A7A7A",
">	c #777777",
",	c #737373",
"'	c #6F6F6F",
")	c #6D6D6D",
"!	c #6A6A6A",
"~	c #5F5F5F",
".",
"+",
"@",
"#",
"$",
"%",
"&",
"*",
"=",
"-",
";",
">",
",",
"'",
")",
"!",
"~",
"."};
