/* XPM */
static char * window_unfocus_bar_xpm[] = {
"1 20 19 1",
" 	c None",
".	c #C8C8C8",
"+	c #FFFFFF",
"@	c #FAFAFA",
"#	c #F8F8F8",
"$	c #F7F7F7",
"%	c #F6F6F6",
"&	c #F5F5F5",
"*	c #F4F4F4",
"=	c #F3F3F3",
"-	c #F1F1F1",
";	c #EEEEEE",
">	c #EDEDED",
",	c #ECECEC",
"'	c #E9E9E9",
")	c #E8E8E8",
"!	c #E4E4E4",
"~	c #E5E5E5",
"{	c #A2A2A2",
".",
"+",
"@",
"@",
"@",
"#",
"$",
"%",
"&",
"*",
"=",
"-",
";",
">",
",",
"'",
")",
"!",
"~",
"{"};
