/* XPM */
static char * window_focus_bar_xpm[] = {
"1 20 20 1",
" 	c None",
".	c #C7C7C7",
"+	c #F8F8F8",
"@	c #EFEFEF",
"#	c #E7E7E7",
"$	c #E6E6E6",
"%	c #E4E4E4",
"&	c #E2E2E2",
"*	c #E0E0E0",
"=	c #DFDFDF",
"-	c #DDDDDD",
";	c #DBDBDB",
">	c #D8D8D8",
",	c #D6D6D6",
"'	c #D4D4D4",
")	c #D2D2D2",
"!	c #CFCFCF",
"~	c #CDCDCD",
"{	c #CACACA",
"]	c #929292",
".",
"+",
"@",
"#",
"$",
"$",
"%",
"&",
"*",
"=",
"-",
";",
">",
",",
"'",
")",
"!",
"~",
"{",
"]"};
