/* XPM */
static char * window_unfocus_button_close_xpm[] = {
"20 20 112 2",
"  	c #C8C8C8",
". 	c #FFFFFF",
"+ 	c #FAFAFA",
"@ 	c #C7C7C7",
"# 	c #767676",
"$ 	c #444444",
"% 	c #0B0B0B",
"& 	c #9D9EA0",
"* 	c #37383A",
"= 	c #47484A",
"- 	c #767779",
"; 	c #8D8E90",
"> 	c #F8F8F8",
", 	c #888B90",
"' 	c #21262C",
") 	c #51565C",
"! 	c #9C9FA4",
"~ 	c #C4C7CC",
"{ 	c #E2E5EA",
"] 	c #F7F7F7",
"^ 	c #BFC2C7",
"/ 	c #3C4147",
"( 	c #2F363E",
"_ 	c #737A84",
": 	c #ADB1BA",
"< 	c #C2C7CD",
"[ 	c #CFD4DA",
"} 	c #F6F6F6",
"| 	c #818489",
"1 	c #1B2026",
"2 	c #4F565E",
"3 	c #79808A",
"4 	c #969DA5",
"5 	c #9CA3AB",
"6 	c #9EA5AD",
"7 	c #F5F5F5",
"8 	c #484B50",
"9 	c #3A3F45",
"0 	c #6E757F",
"a 	c #717882",
"b 	c #848B95",
"c 	c #8B949B",
"d 	c #9299A1",
"e 	c #F4F4F4",
"f 	c #181B20",
"g 	c #5E6369",
"h 	c #7E858F",
"i 	c #868D97",
"j 	c #969FA8",
"k 	c #9EA8B1",
"l 	c #A7B0B9",
"m 	c #F3F3F3",
"n 	c #24292D",
"o 	c #767B81",
"p 	c #878E98",
"q 	c #A0A9B2",
"r 	c #AEB8C2",
"s 	c #B2BCC6",
"t 	c #B6C0C9",
"u 	c #F1F1F1",
"v 	c #5F6468",
"w 	c #7A7F85",
"x 	c #9AA1AB",
"y 	c #AFB8C1",
"z 	c #C0CAD4",
"A 	c #C4D1DA",
"B 	c #CBD5DF",
"C 	c #EEEEEE",
"D 	c #868B91",
"E 	c #6A6F75",
"F 	c #ACB3BB",
"G 	c #BBC4CD",
"H 	c #C6D0DA",
"I 	c #D2DFE8",
"J 	c #DFE9F3",
"K 	c #EDEDED",
"L 	c #C6CBD1",
"M 	c #70757B",
"N 	c #9FA3AC",
"O 	c #C7CED6",
"P 	c #D8E1EA",
"Q 	c #E0EAF3",
"R 	c #EDF7FF",
"S 	c #ECECEC",
"T 	c #EDF0F5",
"U 	c #9CA1A7",
"V 	c #696C73",
"W 	c #B5B9C2",
"X 	c #DBE4EB",
"Y 	c #ECF5FC",
"Z 	c #F8FFFF",
"` 	c #E9E9E9",
" .	c #F3F6FB",
"..	c #A2A3A8",
"+.	c #8C8F96",
"@.	c #959AA0",
"#.	c #BBC2C8",
"$.	c #E0E7ED",
"%.	c #E8E8E8",
"&.	c #F2F3F7",
"*.	c #ECEDF1",
"=.	c #C0C1C5",
"-.	c #A6AAAD",
";.	c #969A9D",
">.	c #84888B",
",.	c #E4E4E4",
"'.	c #F0F0F2",
").	c #EAEBED",
"!.	c #F5F6F8",
"~.	c #EFF0F2",
"{.	c #E5E5E5",
"].	c #A2A2A2",
"                                        ",
". . . . . . . . . . . . . . . . . . . . ",
"+ + + + + + + + + + + + + + + + + + + + ",
"+ + + + + + @ # $ % % $ # @ + + + + + + ",
"+ + + + + & * = - ; ; - = * & + + + + + ",
"> > > > , ' ) ! ~ { { ~ ! ) ' , > > > > ",
"] ] ] ^ / ( _ : < [ [ < : _ ( / ^ ] ] ] ",
"} } } | 1 2 3 4 5 6 6 5 4 3 2 1 | } } } ",
"7 7 7 8 9 0 a b c d d c b a 0 9 8 7 7 7 ",
"e e e f g h i j k l l k j i h g f e e e ",
"m m m n o p q r s t t s r q p o n m m m ",
"u u u v w x y z A B B A z y x w v u u u ",
"C C C D E F G H I J J I H G F E D C C C ",
"K K K L M N O P Q R R Q P O N M L K K K ",
"S S S T U V W X Y Z Z Y X W V U S S S S ",
"` ` ` `  ...+.@.#.$.$.#.@.+... .` ` ` ` ",
"%.%.%.%.&.*.=.-.;.>.>.;.-.=.*.&.%.%.%.%.",
",.,.,.,.,.'.'.).!.~.~.!.).'.'.,.,.,.,.,.",
"{.{.{.{.{.{.{.{.{.{.{.{.{.{.{.{.{.{.{.{.",
"].].].].].].].].].].].].].].].].].].].]."};
