/* XPM */
static char * window_unfocus_button_other_xpm[] = {
"20 20 106 2",
"  	c #C8C8C8",
". 	c #FFFFFF",
"+ 	c #FAFAFA",
"@ 	c #C2C2C2",
"# 	c #A3A3A3",
"$ 	c #7B7B7B",
"% 	c #656565",
"& 	c #666666",
"* 	c #9E9E9E",
"= 	c #C7C7C7",
"- 	c #A4A4A4",
"; 	c #8E8E8E",
"> 	c #909090",
", 	c #ACACAC",
"' 	c #B8B8B8",
") 	c #BBBBBB",
"! 	c #A9A9A9",
"~ 	c #999999",
"{ 	c #848484",
"] 	c #F8F8F8",
"^ 	c #AEAEAE",
"/ 	c #7A7A7A",
"( 	c #9D9D9D",
"_ 	c #BEBEBE",
": 	c #E0E0E0",
"< 	c #E4E4E4",
"[ 	c #DCDCDC",
"} 	c #C9C9C9",
"| 	c #979797",
"1 	c #7E7E7E",
"2 	c #ADADAD",
"3 	c #F7F7F7",
"4 	c #CACACA",
"5 	c #828282",
"6 	c #8C8C8C",
"7 	c #BFBFBF",
"8 	c #E2E2E2",
"9 	c #DDDDDD",
"0 	c #E7E7E7",
"a 	c #E5E5E5",
"b 	c #D6D6D6",
"c 	c #C3C3C3",
"d 	c #8F8F8F",
"e 	c #757575",
"f 	c #CCCCCC",
"g 	c #F6F6F6",
"h 	c #A6A6A6",
"i 	c #8A8A8A",
"j 	c #B1B1B1",
"k 	c #BDBDBD",
"l 	c #D0D0D0",
"m 	c #D1D1D1",
"n 	c #D5D5D5",
"o 	c #D7D7D7",
"p 	c #B0B0B0",
"q 	c #818181",
"r 	c #AAAAAA",
"s 	c #F5F5F5",
"t 	c #A0A0A0",
"u 	c #C6C6C6",
"v 	c #D4D4D4",
"w 	c #CBCBCB",
"x 	c #CFCFCF",
"y 	c #BABABA",
"z 	c #808080",
"A 	c #F4F4F4",
"B 	c #D3D3D3",
"C 	c #D9D9D9",
"D 	c #D2D2D2",
"E 	c #B9B9B9",
"F 	c #F3F3F3",
"G 	c #DFDFDF",
"H 	c #E1E1E1",
"I 	c #F1F1F1",
"J 	c #B6B6B6",
"K 	c #EBEBEB",
"L 	c #EAEAEA",
"M 	c #A7A7A7",
"N 	c #EEEEEE",
"O 	c #B4B4B4",
"P 	c #D8D8D8",
"Q 	c #E9E9E9",
"R 	c #F2F2F2",
"S 	c #F0F0F0",
"T 	c #E6E6E6",
"U 	c #EDEDED",
"V 	c #E3E3E3",
"W 	c #B7B7B7",
"X 	c #ECECEC",
"Y 	c #EDF0F5",
"Z 	c #CECECE",
"` 	c #E8E8E8",
" .	c #EFEFEF",
"..	c #B2B2B2",
"+.	c #F3F6FB",
"@.	c #B5B5B5",
"#.	c #C0C0C0",
"$.	c #F2F3F7",
"%.	c #ECEDF1",
"&.	c #B3B3B3",
"*.	c #ABABAB",
"=.	c #F0F0F2",
"-.	c #EAEBED",
";.	c #F5F6F8",
">.	c #EFF0F2",
",.	c #A2A2A2",
"                                        ",
". . . . . . . . . . . . . . . . . . . . ",
"+ + + + + + + + + + + + + + + + + + + + ",
"+ + + + + + @ # $ % & $ * = + + + + + + ",
"+ + + + + - ; > , ' ) ! ~ { - + + + + + ",
"] ] ] ] ^ / ( _ : < < [ } | 1 2 ] ] ] ] ",
"3 3 3 4 5 6 7 8 9 0 9 a b c d e f 3 3 3 ",
"g g g h i j k l m b n o c   p q r g g g ",
"s s s { t c u   v w m x m } y h z s s s ",
"A A A { ^   v m B [ C D [ f 7 E 5 A A A ",
"F F F > ' l v G H : < < C b o E ; F F F ",
"I I I # J C G : 8 < K L a 8 B E M I I I ",
"N N N O ' n P Q s R S T : 8 P 7 , N N N ",
"U U U } 2 w V S H s U U F a @ W 4 U U U ",
"X X X Y O ^ Z Q R Q ` U  .b ..W Y X X X ",
"Q Q Q Q +.W J @.x 8 < m J j #.+.Q Q Q Q ",
"` ` ` ` $.%.Z j &.| *.@.y f %.$.` ` ` ` ",
"< < < < < =.=.-.;.>.>.;.-.=.=.< < < < < ",
"a a a a a a a a a a a a a a a a a a a a ",
",.,.,.,.,.,.,.,.,.,.,.,.,.,.,.,.,.,.,.,."};
