/* XPM */
static char * window_focus_button_other_xpm[] = {
"20 20 93 2",
"  	c #C7C7C7",
". 	c #F8F8F8",
"+ 	c #EFEFEF",
"@ 	c #E7E7E7",
"# 	c #C2C2C2",
"$ 	c #A3A3A3",
"% 	c #7B7B7B",
"& 	c #656565",
"* 	c #666666",
"= 	c #9E9E9E",
"- 	c #E6E6E6",
"; 	c #A4A4A4",
"> 	c #8E8E8E",
", 	c #909090",
"' 	c #ACACAC",
") 	c #B8B8B8",
"! 	c #BBBBBB",
"~ 	c #A9A9A9",
"{ 	c #999999",
"] 	c #848484",
"^ 	c #AEAEAE",
"/ 	c #7A7A7A",
"( 	c #9D9D9D",
"_ 	c #BEBEBE",
": 	c #E0E0E0",
"< 	c #E4E4E4",
"[ 	c #DCDCDC",
"} 	c #C9C9C9",
"| 	c #979797",
"1 	c #7E7E7E",
"2 	c #ADADAD",
"3 	c #CACACA",
"4 	c #828282",
"5 	c #8C8C8C",
"6 	c #BFBFBF",
"7 	c #E2E2E2",
"8 	c #DDDDDD",
"9 	c #E5E5E5",
"0 	c #D6D6D6",
"a 	c #C3C3C3",
"b 	c #8F8F8F",
"c 	c #757575",
"d 	c #CCCCCC",
"e 	c #A6A6A6",
"f 	c #8A8A8A",
"g 	c #B1B1B1",
"h 	c #BDBDBD",
"i 	c #D0D0D0",
"j 	c #D1D1D1",
"k 	c #D5D5D5",
"l 	c #D7D7D7",
"m 	c #C8C8C8",
"n 	c #B0B0B0",
"o 	c #818181",
"p 	c #AAAAAA",
"q 	c #A0A0A0",
"r 	c #C6C6C6",
"s 	c #D4D4D4",
"t 	c #CBCBCB",
"u 	c #CFCFCF",
"v 	c #BABABA",
"w 	c #808080",
"x 	c #DFDFDF",
"y 	c #D3D3D3",
"z 	c #D9D9D9",
"A 	c #D2D2D2",
"B 	c #B9B9B9",
"C 	c #E1E1E1",
"D 	c #DBDBDB",
"E 	c #B6B6B6",
"F 	c #EBEBEB",
"G 	c #EAEAEA",
"H 	c #A7A7A7",
"I 	c #D8D8D8",
"J 	c #B4B4B4",
"K 	c #E9E9E9",
"L 	c #F5F5F5",
"M 	c #F2F2F2",
"N 	c #F0F0F0",
"O 	c #E3E3E3",
"P 	c #EDEDED",
"Q 	c #F3F3F3",
"R 	c #B7B7B7",
"S 	c #CECECE",
"T 	c #E8E8E8",
"U 	c #B2B2B2",
"V 	c #B5B5B5",
"W 	c #C0C0C0",
"X 	c #DEDEDE",
"Y 	c #B3B3B3",
"Z 	c #ABABAB",
"` 	c #CDCDCD",
" .	c #929292",
"                                        ",
". . . . . . . . . . . . . . . . . . . . ",
"+ + + + + + + + + + + + + + + + + + + + ",
"@ @ @ @ @ @ # $ % & * % =   @ @ @ @ @ @ ",
"- - - - - ; > , ' ) ! ~ { ] ; - - - - - ",
"- - - - ^ / ( _ : < < [ } | 1 2 - - - - ",
"< < < 3 4 5 6 7 8 @ 8 9 0 a b c d < < < ",
"7 7 7 e f g h i j 0 k l a m n o p 7 7 7 ",
": : : ] q a r m s t j u j } v e w : : : ",
"x x x ] ^ m s j y [ z A [ d 6 B 4 x x x ",
"8 8 8 , ) i s x C : < < z 0 l B > 8 8 8 ",
"D D D $ E z x : 7 < F G 9 7 y B H D D D ",
"I I I J ) k I K L M N - : 7 I 6 ' I I I ",
"0 0 0 } 2 t O N C L P P Q 9 # R 3 0 0 0 ",
"s s s C J ^ S K M K T P + 0 U R [ s s s ",
"A A A z s R E V u 7 < j E g W j X A A A ",
"u u u u 8 A S g Y | Z V v d D l u u u u ",
"` ` ` ` ` ` z X - - < X D I ` ` ` ` ` ` ",
"3 3 3 3 3 3 3 3 3 3 3 3 3 3 3 3 3 3 3 3 ",
" . . . . . . . . . . . . . . . . . . . ."};
