/* XPM */
static char * hi_xpm[] = {
"100 13 3 1",
" 	c None",
".	c #000000",
"+	c #494977",
".++++++++++++++++++++++++++++++++++++++++++++++++++++++++++++++++++++++++++++++++++++++++++++++++++.",
".+................................................................................................+.",
".+................................................................................................+.",
".+................................................................................................+.",
".+................................................................................................+.",
".+................................................................................................+.",
".+................................................................................................+.",
".+................................................................................................+.",
".+................................................................................................+.",
".+................................................................................................+.",
".+................................................................................................+.",
".+................................................................................................+.",
".++++++++++++++++++++++++++++++++++++++++++++++++++++++++++++++++++++++++++++++++++++++++++++++++++."};
