/* XPM */
static char * icon_xpm[] = {
"16 16 6 1",
" 	c None",
".	c #444444",
"+	c #D3D3D3",
"@	c #D2D2D2",
"#	c #CDCDCD",
"$	c #C9C9C9",
"................",
"................",
"................",
"................",
"................",
"................",
"................",
"................",
"................",
"................",
"..++++++++++++..",
"..@@@@@@@@@@@@..",
"..############..",
"..$$$$$$$$$$$$..",
"................",
"................"};
