/* XPM */
static char * close_xpm[] = {
"25 25 102 2",
"  	c None",
". 	c #DFE0DF",
"+ 	c #DFE0E0",
"@ 	c #E0E0DF",
"# 	c #E0E0E0",
"$ 	c #DFDFE0",
"% 	c #E0DFE0",
"& 	c #E0DFDF",
"* 	c #DFDFDF",
"= 	c #DEDFDF",
"- 	c #DFDFDE",
"; 	c #DFDEDF",
"> 	c #DEDEDE",
", 	c #DFDEDE",
"' 	c #DEDEDF",
") 	c #DEDFDE",
"! 	c #DDDDDD",
"~ 	c #DEDEDD",
"{ 	c #DDDEDE",
"] 	c #DEDDDE",
"^ 	c #DDDEDD",
"/ 	c #DDDDDE",
"( 	c #DEDDDD",
"_ 	c #CFCFD0",
": 	c #B3B4B3",
"< 	c #898989",
"[ 	c #6E6E6F",
"} 	c #6E6E6E",
"| 	c #B4B3B4",
"1 	c #CFCFCF",
"2 	c #DCDDDD",
"3 	c #DDDDDC",
"4 	c #454545",
"5 	c #1B1B1B",
"6 	c #000000",
"7 	c #DDDCDD",
"8 	c #DCDDDC",
"9 	c #DCDCDD",
"0 	c #DCDCDC",
"a 	c #CECFCE",
"b 	c #AEAEAE",
"c 	c #B0B0B0",
"d 	c #131313",
"e 	c #CFCECE",
"f 	c #DDDCDC",
"g 	c #B2B2B2",
"h 	c #E6E6E6",
"i 	c #BFBFBF",
"j 	c #DBDCDC",
"k 	c #DCDBDC",
"l 	c #DCDCDB",
"m 	c #C1C1C1",
"n 	c #898889",
"o 	c #DBDCDB",
"p 	c #DCDBDB",
"q 	c #DBDBDC",
"r 	c #DBDBDB",
"s 	c #6D6D6E",
"t 	c #6D6D6D",
"u 	c #DBDADB",
"v 	c #DBDBDA",
"w 	c #DADBDA",
"x 	c #DADADA",
"y 	c #DADBDB",
"z 	c #888887",
"A 	c #878788",
"B 	c #DBDADA",
"C 	c #DADADB",
"D 	c #B0B1B0",
"E 	c #444444",
"F 	c #D9DADA",
"G 	c #DADAD9",
"H 	c #CBCCCB",
"I 	c #878787",
"J 	c #CCCBCC",
"K 	c #D9D9D9",
"L 	c #D9D9DA",
"M 	c #D9DAD9",
"N 	c #DAD9D9",
"O 	c #CBCBCB",
"P 	c #6C6C6C",
"Q 	c #D8D9D9",
"R 	c #D8D9D8",
"S 	c #D9D8D8",
"T 	c #D8D8D9",
"U 	c #D9D8D9",
"V 	c #D9D9D8",
"W 	c #D8D8D8",
"X 	c #D8D8D7",
"Y 	c #D7D8D8",
"Z 	c #D8D7D8",
"` 	c #D7D8D7",
" .	c #D7D7D7",
"..	c #D8D7D7",
"+.	c #D7D7D8",
"@.	c #D6D7D7",
"#.	c #D6D6D7",
"$.	c #D7D6D7",
"%.	c #D6D6D6",
"&.	c #D6D7D6",
"*.	c #D7D7D6",
"=.	c #D7D6D6",
". + . @ + # . # $ % % . % + @ $ % # # + # & @ # $ ",
"$ * * + * & * * % . + . * # @ . * * # * . $ % @ . ",
"= - = ; * - * - * ; * = ; * - * * * * - * - * * * ",
"> = , = * , > ' ; , ) ' = - ; ; > , - , , - - , = ",
"> , > > > > > > > > > > > , > > > > > > > > > ' > ",
"> ! ~ { ] ] ] ~ > ] ] > { ^ ] > / { { > ] ] ^ > { ",
"~ ! / { ( ~ ( ( _ : < [ } < | 1 ( ! ( ] ! ^ ~ ! ( ",
"2 ! ! ! ! 3 3 1 < 4 5 6 6 5 4 < 1 3 7 7 7 ! ! ! ! ",
"8 ! ! 9 0 7 a < b c d 6 6 d c b < e ! 2 0 7 7 0 9 ",
"f f 0 0 0 0 g 4 c h i d d i h c 4 g 9 0 0 0 f 0 0 ",
"0 0 j k j l < 5 d i h m m h i d 5 n o p 0 q j q j ",
"o r r o r r s 6 6 d m h h m d 6 6 t k o q r r p q ",
"u r v r r r t 6 6 d m h h m d 6 6 t r r r v u r r ",
"w u r w x y z 5 d i h m m h i d 5 A y u B B u B w ",
"C x w x x x D E c h i d d i h c E c B x x x y x x ",
"x F G x x x H I b c d 6 6 d c b I J K x x L F G x ",
"M M M F G G N O I E 5 6 6 5 E I O M M L M L L K N ",
"K K K K K K K K O c I P P I c O K K K K K K K K Q ",
"K K R S T T T K U S V S K R T Q Q S S R K V Q V U ",
"Q W W S W W T W S W T V W W W R W W W S W W T W Q ",
"X W W W W X X X Y X Y X X Y Z W W Z W Z W W ` W Y ",
" . ...+. .Y  . . . .` +.W `  ...Z  .`  . . .Z .. .",
" . . . . . . . . .@.@. . . . . . . . . . . . . . .",
"@.#.@.$.@.@.$.$.%.@.$. . . .#.$.$.&.&.*.*.#. .&.&.",
"%.%.%.%.%.#.%.%.=.&.=.%.&.%.%.=.%.%.@.#.%.%.%.%.%."};
