/* XPM */
static char * max_xpm[] = {
"25 25 107 2",
"  	c None",
". 	c #DFE0DF",
"+ 	c #DFE0E0",
"@ 	c #E0E0DF",
"# 	c #E0E0E0",
"$ 	c #DFDFE0",
"% 	c #E0DFE0",
"& 	c #E0DFDF",
"* 	c #DFDFDF",
"= 	c #DEDFDF",
"- 	c #DFDFDE",
"; 	c #DFDEDF",
"> 	c #DEDEDE",
", 	c #DFDEDE",
"' 	c #DEDEDF",
") 	c #DEDFDE",
"! 	c #DDDDDD",
"~ 	c #DEDEDD",
"{ 	c #DDDEDE",
"] 	c #DEDDDE",
"^ 	c #DDDEDD",
"/ 	c #DDDDDE",
"( 	c #DEDDDD",
"_ 	c #CFCFD0",
": 	c #B3B4B3",
"< 	c #898989",
"[ 	c #6E6E6F",
"} 	c #6E6E6E",
"| 	c #B4B3B4",
"1 	c #CFCFCF",
"2 	c #DCDDDD",
"3 	c #DDDDDC",
"4 	c #454545",
"5 	c #1B1B1B",
"6 	c #000000",
"7 	c #DDDCDD",
"8 	c #DCDDDC",
"9 	c #DCDCDD",
"0 	c #DCDCDC",
"a 	c #CECFCE",
"b 	c #292929",
"c 	c #A2A2A2",
"d 	c #CFCECE",
"e 	c #DDDCDC",
"f 	c #B2B2B2",
"g 	c #E6E6E6",
"h 	c #DBDCDC",
"i 	c #DCDBDC",
"j 	c #DCDCDB",
"k 	c #898889",
"l 	c #DBDCDB",
"m 	c #DCDBDB",
"n 	c #DBDBDC",
"o 	c #DBDBDB",
"p 	c #6D6D6E",
"q 	c #A9A9A9",
"r 	c #6D6D6D",
"s 	c #DBDADB",
"t 	c #DBDBDA",
"u 	c #9C9C9C",
"v 	c #DADBDA",
"w 	c #DADADA",
"x 	c #DADBDB",
"y 	c #888887",
"z 	c #878788",
"A 	c #DBDADA",
"B 	c #DADADB",
"C 	c #B0B1B0",
"D 	c #444444",
"E 	c #E1E1E1",
"F 	c #050505",
"G 	c #B0B0B0",
"H 	c #D9DADA",
"I 	c #DADAD9",
"J 	c #CBCCCB",
"K 	c #878787",
"L 	c #9B9B9B",
"M 	c #AAAAAA",
"N 	c #282928",
"O 	c #CCCBCC",
"P 	c #D9D9D9",
"Q 	c #D9D9DA",
"R 	c #D9DAD9",
"S 	c #DAD9D9",
"T 	c #CBCBCB",
"U 	c #6C6C6C",
"V 	c #D8D9D9",
"W 	c #D8D9D8",
"X 	c #D9D8D8",
"Y 	c #D8D8D9",
"Z 	c #D9D8D9",
"` 	c #D9D9D8",
" .	c #D8D8D8",
"..	c #D8D8D7",
"+.	c #D7D8D8",
"@.	c #D8D7D8",
"#.	c #D7D8D7",
"$.	c #D7D7D7",
"%.	c #D8D7D7",
"&.	c #D7D7D8",
"*.	c #D6D7D7",
"=.	c #D6D6D7",
"-.	c #D7D6D7",
";.	c #D6D6D6",
">.	c #D6D7D6",
",.	c #D7D7D6",
"'.	c #D7D6D6",
". + . @ + # . # $ % % . % + @ $ % # # + # & @ # $ ",
"$ * * + * & * * % . + . * # @ . * * # * . $ % @ . ",
"= - = ; * - * - * ; * = ; * - * * * * - * - * * * ",
"> = , = * , > ' ; , ) ' = - ; ; > , - , , - - , = ",
"> , > > > > > > > > > > > , > > > > > > > > > ' > ",
"> ! ~ { ] ] ] ~ > ] ] > { ^ ] > / { { > ] ] ^ > { ",
"~ ! / { ( ~ ( ( _ : < [ } < | 1 ( ! ( ] ! ^ ~ ! ( ",
"2 ! ! ! ! 3 3 1 < 4 5 6 6 5 4 < 1 3 7 7 7 ! ! ! ! ",
"8 ! ! 9 0 7 a < b 6 6 c c 6 6 b < d ! 2 0 7 7 0 9 ",
"e e 0 0 0 0 f 4 6 6 6 g g 6 6 6 4 f 9 0 0 0 e 0 0 ",
"0 0 h i h j < 5 6 6 6 g g 6 6 6 5 k l m 0 n h n h ",
"l o o l o o p 6 c g g g g g g q 6 r i l n o o m n ",
"s o t o o o r 6 c g g g g g g u 6 r o o o t s o o ",
"v s o v w x y 5 6 6 6 g g 6 6 6 5 z x s A A s A v ",
"B w v w w w C D 6 6 6 E g F 6 6 D G A w w w x w w ",
"w H I w w w J K b 6 6 L M 6 6 N K O P w w Q H I w ",
"R R R H I I S T K D 5 6 6 5 D K T R R Q R Q Q P S ",
"P P P P P P P P T G K U U K G T P P P P P P P P V ",
"P P W X Y Y Y P Z X ` X P W Y V V X X W P ` V ` Z ",
"V  . .X  . .Y  .X  .Y `  . . .W  . . .X  . .Y  .V ",
".. . . . .......+...+.....+.@. . .@. .@. . .#. .+.",
"$.$.%.&.$.+.$.$.$.$.#.&. .#.$.%.@.$.#.$.$.$.@.%.$.",
"$.$.$.$.$.$.$.$.$.*.*.$.$.$.$.$.$.$.$.$.$.$.$.$.$.",
"*.=.*.-.*.*.-.-.;.*.-.$.$.$.=.-.-.>.>.,.,.=.$.>.>.",
";.;.;.;.;.=.;.;.'.>.'.;.>.;.;.'.;.;.*.=.;.;.;.;.;."};
