/* XPM */
static char * menu_xpm[] = {
"1 25 3 1",
" 	c None",
".	c #7F8FA7",
"+	c #7F8FA6",
".",
".",
".",
".",
".",
".",
".",
".",
".",
".",
".",
".",
".",
".",
".",
".",
".",
".",
".",
".",
".",
".",
".",
"+",
"."};
