/* XPM */
static char * close_pressed_xpm[] = {
"25 25 130 2",
"  	c None",
". 	c #DFE0DF",
"+ 	c #DFE0E0",
"@ 	c #E0E0DF",
"# 	c #E0E0E0",
"$ 	c #DFDFE0",
"% 	c #E0DFE0",
"& 	c #E0DFDF",
"* 	c #DFDFDF",
"= 	c #DEDFDF",
"- 	c #DFDFDE",
"; 	c #DFDEDF",
"> 	c #DEDEDE",
", 	c #DFDEDE",
"' 	c #DEDEDF",
") 	c #DEDFDE",
"! 	c #DDDDDD",
"~ 	c #DEDEDD",
"{ 	c #DDDEDE",
"] 	c #DEDDDE",
"^ 	c #DDDEDD",
"/ 	c #DDDDDE",
"( 	c #DEDDDD",
"_ 	c #CFCFD0",
": 	c #B3B4B3",
"< 	c #888889",
"[ 	c #6F6F6F",
"} 	c #B4B3B4",
"| 	c #CFCFCF",
"1 	c #DCDDDD",
"2 	c #DDDDDC",
"3 	c #464647",
"4 	c #222428",
"5 	c #10171B",
"6 	c #DDDCDD",
"7 	c #DCDDDC",
"8 	c #DCDCDD",
"9 	c #DCDCDC",
"0 	c #CECFCE",
"a 	c #AFB0B1",
"b 	c #B7B9BA",
"c 	c #495768",
"d 	c #49637C",
"e 	c #CFCECE",
"f 	c #DDDCDC",
"g 	c #B2B2B2",
"h 	c #46464A",
"i 	c #B8BBBD",
"j 	c #E6E6E6",
"k 	c #D2D8DD",
"l 	c #84A5C6",
"m 	c #DBDCDC",
"n 	c #DCDBDC",
"o 	c #DCDCDB",
"p 	c #888888",
"q 	c #272B31",
"r 	c #536477",
"s 	c #D3D9DE",
"t 	c #D6DCE1",
"u 	c #888788",
"v 	c #DBDCDB",
"w 	c #DCDBDB",
"x 	c #DBDBDC",
"y 	c #DBDBDB",
"z 	c #707070",
"A 	c #232C36",
"B 	c #5A748E",
"C 	c #8AABCB",
"D 	c #DBDADB",
"E 	c #DBDBDA",
"F 	c #607B95",
"G 	c #8DADCE",
"H 	c #706F70",
"I 	c #DADBDA",
"J 	c #DADADA",
"K 	c #DADBDB",
"L 	c #858587",
"M 	c #343D46",
"N 	c #61748A",
"O 	c #D4DAE0",
"P 	c #DBDADA",
"Q 	c #DADADB",
"R 	c #B0B1B0",
"S 	c #494C50",
"T 	c #BEC2C6",
"U 	c #D5DBE0",
"V 	c #8EAFD0",
"W 	c #494B50",
"X 	c #B0B0B0",
"Y 	c #D9DADA",
"Z 	c #DADAD9",
"` 	c #CBCCCB",
" .	c #858586",
"..	c #B2B4B6",
"+.	c #BFC3C7",
"@.	c #688097",
"#.	c #6B88A5",
"$.	c #CCCBCC",
"%.	c #D9D9D9",
"&.	c #D9D9DA",
"*.	c #D9DAD9",
"=.	c #DAD9D9",
"-.	c #CBCBCB",
";.	c #484C51",
">.	c #38444E",
",.	c #32424F",
"'.	c #848487",
").	c #848486",
"!.	c #6D7071",
"~.	c #D8D9D9",
"{.	c #D8D9D8",
"].	c #D9D8D8",
"^.	c #D8D8D9",
"/.	c #D9D8D9",
"(.	c #D9D9D8",
"_.	c #D8D8D8",
":.	c #D8D8D7",
"<.	c #D7D8D8",
"[.	c #D8D7D8",
"}.	c #D7D8D7",
"|.	c #D7D7D7",
"1.	c #D8D7D7",
"2.	c #D7D7D8",
"3.	c #D6D7D7",
"4.	c #D6D6D7",
"5.	c #D7D6D7",
"6.	c #D6D6D6",
"7.	c #D6D7D6",
"8.	c #D7D7D6",
"9.	c #D7D6D6",
". + . @ + # . # $ % % . % + @ $ % # # + # & @ # $ ",
"$ * * + * & * * % . + . * # @ . * * # * . $ % @ . ",
"= - = ; * - * - * ; * = ; * - * * * * - * - * * * ",
"> = , = * , > ' ; , ) ' = - ; ; > , - , , - - , = ",
"> , > > > > > > > > > > > , > > > > > > > > > ' > ",
"> ! ~ { ] ] ] ~ > ] ] > { ^ ] > / { { > ] ] ^ > { ",
"~ ! / { ( ~ ( ( _ : < [ [ < } | ( ! ( ] ! ^ ~ ! ( ",
"1 ! ! ! ! 2 2 | < 3 4 5 5 4 3 < | 2 6 6 6 ! ! ! ! ",
"7 ! ! 8 9 6 0 < a b c d d c b a < e ! 1 9 6 6 9 8 ",
"f f 9 9 9 9 g h i j k l l k j i h g 8 9 9 9 f 9 9 ",
"9 9 m n m o p q r s j t t j s r q u v w 9 x m x m ",
"v y y v y y z A B C t j j t C B A z n v x y y w x ",
"D y E y y y z A F G t j j t G F A H y y y E D y y ",
"I D y I J K L M N O j t t j O N M L K D P P D P I ",
"Q J I J J J R S T j U V V U j T W X P J J J K J J ",
"J Y Z J J J `  ...+.@.#.#.@.+...L $.%.J J &.Y Z J ",
"*.*.*.Y Z Z =.-.L ;.>.,.,.>.;.'.-.*.*.&.*.&.&.%.=.",
"%.%.%.%.%.%.%.%.-.X ).!.!.).X -.%.%.%.%.%.%.%.%.~.",
"%.%.{.].^.^.^.%./.].(.].%.{.^.~.~.].].{.%.(.~.(./.",
"~._._.]._._.^._.]._.^.(._._._.{._._._.]._._.^._.~.",
":._._._._.:.:.:.<.:.<.:.:.<.[._._.[._.[._._.}._.<.",
"|.|.1.2.|.<.|.|.|.|.}.2._.}.|.1.[.|.}.|.|.|.[.1.|.",
"|.|.|.|.|.|.|.|.|.3.3.|.|.|.|.|.|.|.|.|.|.|.|.|.|.",
"3.4.3.5.3.3.5.5.6.3.5.|.|.|.4.5.5.7.7.8.8.4.|.7.7.",
"6.6.6.6.6.4.6.6.9.7.9.6.7.6.6.9.6.6.3.4.6.6.6.6.6."};
