/* XPM */
static char * menu_hilight_xpm[] = {
"1 23 23 1",
" 	c None",
".	c #A5B4C1",
"+	c #ACBBC5",
"@	c #AAB9C4",
"#	c #A8B7C3",
"$	c #A6B5C1",
"%	c #A4B3C0",
"&	c #A2B1BF",
"*	c #A0AFBD",
"=	c #9EADBC",
"-	c #9CABBA",
";	c #9AA9B9",
">	c #98A7B8",
",	c #96A5B6",
"'	c #94A3B5",
")	c #92A1B4",
"!	c #909FB2",
"~	c #8E9DB1",
"{	c #8B9AAE",
"]	c #8897AD",
"^	c #8393AA",
"/	c #7F8FA7",
"(	c #7F8EA6",
".",
"+",
"@",
"#",
"$",
"%",
"&",
"*",
"=",
"-",
";",
">",
",",
"'",
")",
"!",
"~",
"{",
"]",
"^",
"/",
"(",
"/"};
