/* XPM */
static char * min_pressed_xpm[] = {
"25 25 132 2",
"  	c None",
". 	c #DFE0DF",
"+ 	c #DFE0E0",
"@ 	c #E0E0DF",
"# 	c #E0E0E0",
"$ 	c #DFDFE0",
"% 	c #E0DFE0",
"& 	c #E0DFDF",
"* 	c #DFDFDF",
"= 	c #DEDFDF",
"- 	c #DFDFDE",
"; 	c #DFDEDF",
"> 	c #DEDEDE",
", 	c #DFDEDE",
"' 	c #DEDEDF",
") 	c #DEDFDE",
"! 	c #DDDDDD",
"~ 	c #DEDEDD",
"{ 	c #DDDEDE",
"] 	c #DEDDDE",
"^ 	c #DDDEDD",
"/ 	c #DDDDDE",
"( 	c #DEDDDD",
"_ 	c #CFCFD0",
": 	c #B3B4B3",
"< 	c #888889",
"[ 	c #6F6F6F",
"} 	c #B4B3B4",
"| 	c #CFCFCF",
"1 	c #DCDDDD",
"2 	c #DDDDDC",
"3 	c #464647",
"4 	c #222428",
"5 	c #10171B",
"6 	c #DDDCDD",
"7 	c #DCDDDC",
"8 	c #DCDCDD",
"9 	c #DCDCDC",
"0 	c #CECFCE",
"a 	c #2C2F33",
"b 	c #1D242C",
"c 	c #3B4B5D",
"d 	c #49637C",
"e 	c #CFCECE",
"f 	c #DDDCDC",
"g 	c #B2B2B2",
"h 	c #46464A",
"i 	c #232D36",
"j 	c #546E8A",
"k 	c #7193B6",
"l 	c #7CA0C4",
"m 	c #DBDCDC",
"n 	c #DCDBDC",
"o 	c #DCDCDB",
"p 	c #888888",
"q 	c #272B31",
"r 	c #46596E",
"s 	c #7799BC",
"t 	c #86AACF",
"u 	c #89ADD1",
"v 	c #888788",
"w 	c #DBDCDB",
"x 	c #DCDBDB",
"y 	c #DBDBDC",
"z 	c #DBDBDB",
"A 	c #707070",
"B 	c #232C36",
"C 	c #5A748E",
"D 	c #82A6C9",
"E 	c #DBDADB",
"F 	c #DBDBDA",
"G 	c #607B95",
"H 	c #85A8CC",
"I 	c #706F70",
"J 	c #DADBDA",
"K 	c #DADADA",
"L 	c #DADBDB",
"M 	c #858587",
"N 	c #343D46",
"O 	c #BBC1C8",
"P 	c #E6E6E6",
"Q 	c #BFC5CB",
"R 	c #DBDADA",
"S 	c #DADADB",
"T 	c #B0B1B0",
"U 	c #494C50",
"V 	c #B4B8BD",
"W 	c #AFB4B9",
"X 	c #494B50",
"Y 	c #B0B0B0",
"Z 	c #D9DADA",
"` 	c #DADAD9",
" .	c #CBCCCB",
"..	c #858586",
"+.	c #383F45",
"@.	c #415364",
"#.	c #5D7790",
"$.	c #6B88A5",
"%.	c #383F44",
"&.	c #CCCBCC",
"*.	c #D9D9D9",
"=.	c #D9D9DA",
"-.	c #D9DAD9",
";.	c #DAD9D9",
">.	c #CBCBCB",
",.	c #484C51",
"'.	c #38444E",
").	c #32424F",
"!.	c #848487",
"~.	c #848486",
"{.	c #6D7071",
"].	c #D8D9D9",
"^.	c #D8D9D8",
"/.	c #D9D8D8",
"(.	c #D8D8D9",
"_.	c #D9D8D9",
":.	c #D9D9D8",
"<.	c #D8D8D8",
"[.	c #D8D8D7",
"}.	c #D7D8D8",
"|.	c #D8D7D8",
"1.	c #D7D8D7",
"2.	c #D7D7D7",
"3.	c #D8D7D7",
"4.	c #D7D7D8",
"5.	c #D6D7D7",
"6.	c #D6D6D7",
"7.	c #D7D6D7",
"8.	c #D6D6D6",
"9.	c #D6D7D6",
"0.	c #D7D7D6",
"a.	c #D7D6D6",
". + . @ + # . # $ % % . % + @ $ % # # + # & @ # $ ",
"$ * * + * & * * % . + . * # @ . * * # * . $ % @ . ",
"= - = ; * - * - * ; * = ; * - * * * * - * - * * * ",
"> = , = * , > ' ; , ) ' = - ; ; > , - , , - - , = ",
"> , > > > > > > > > > > > , > > > > > > > > > ' > ",
"> ! ~ { ] ] ] ~ > ] ] > { ^ ] > / { { > ] ] ^ > { ",
"~ ! / { ( ~ ( ( _ : < [ [ < } | ( ! ( ] ! ^ ~ ! ( ",
"1 ! ! ! ! 2 2 | < 3 4 5 5 4 3 < | 2 6 6 6 ! ! ! ! ",
"7 ! ! 8 9 6 0 < a b c d d c b a < e ! 1 9 6 6 9 8 ",
"f f 9 9 9 9 g h i j k l l k j i h g 8 9 9 9 f 9 9 ",
"9 9 m n m o p q r s t u u t s r q v w x 9 y m y m ",
"w z z w z z A B C D u u u u D C B A n w y z z x y ",
"E z F z z z A B G H u u u u H G B I z z z F E z z ",
"J E z J K L M N O P P P P P P Q N M L E R R E R J ",
"S K J K K K T U V P P P P P P W X Y R K K K L K K ",
"K Z ` K K K  ...+.@.#.$.$.#.@.%.M &.*.K K =.Z ` K ",
"-.-.-.Z ` ` ;.>.M ,.'.).).'.,.!.>.-.-.=.-.=.=.*.;.",
"*.*.*.*.*.*.*.*.>.Y ~.{.{.~.Y >.*.*.*.*.*.*.*.*.].",
"*.*.^./.(.(.(.*._./.:./.*.^.(.].]././.^.*.:.].:._.",
"].<.<./.<.<.(.<./.<.(.:.<.<.<.^.<.<.<./.<.<.(.<.].",
"[.<.<.<.<.[.[.[.}.[.}.[.[.}.|.<.<.|.<.|.<.<.1.<.}.",
"2.2.3.4.2.}.2.2.2.2.1.4.<.1.2.3.|.2.1.2.2.2.|.3.2.",
"2.2.2.2.2.2.2.2.2.5.5.2.2.2.2.2.2.2.2.2.2.2.2.2.2.",
"5.6.5.7.5.5.7.7.8.5.7.2.2.2.6.7.7.9.9.0.0.6.2.9.9.",
"8.8.8.8.8.6.8.8.a.9.a.8.9.8.8.a.8.8.5.6.8.8.8.8.8."};
