/* XPM */
static char * stick_unfocused_xpm[] = {
"25 25 99 2",
"  	c None",
". 	c #DFE0DF",
"+ 	c #DFE0E0",
"@ 	c #E0E0DF",
"# 	c #E0E0E0",
"$ 	c #DFDFE0",
"% 	c #E0DFE0",
"& 	c #E0DFDF",
"* 	c #DFDFDF",
"= 	c #DEDFDF",
"- 	c #DFDFDE",
"; 	c #DFDEDF",
"> 	c #DEDEDE",
", 	c #DFDEDE",
"' 	c #DEDEDF",
") 	c #DEDFDE",
"! 	c #DDDDDD",
"~ 	c #DEDEDD",
"{ 	c #DDDEDE",
"] 	c #DEDDDE",
"^ 	c #DDDEDD",
"/ 	c #DDDDDE",
"( 	c #DEDDDD",
"_ 	c #CFCFD0",
": 	c #B3B4B3",
"< 	c #898989",
"[ 	c #6E6E6F",
"} 	c #6E6E6E",
"| 	c #B4B3B4",
"1 	c #CFCFCF",
"2 	c #DCDDDD",
"3 	c #DDDDDC",
"4 	c #454545",
"5 	c #1B1B1B",
"6 	c #000000",
"7 	c #DDDCDD",
"8 	c #DCDDDC",
"9 	c #DCDCDD",
"0 	c #DCDCDC",
"a 	c #CECFCE",
"b 	c #292929",
"c 	c #CFCECE",
"d 	c #DDDCDC",
"e 	c #B2B2B2",
"f 	c #DBDCDC",
"g 	c #DCDBDC",
"h 	c #DCDCDB",
"i 	c #898889",
"j 	c #DBDCDB",
"k 	c #DCDBDB",
"l 	c #DBDBDC",
"m 	c #DBDBDB",
"n 	c #6D6D6E",
"o 	c #6D6D6D",
"p 	c #DBDADB",
"q 	c #DBDBDA",
"r 	c #DADBDA",
"s 	c #DADADA",
"t 	c #DADBDB",
"u 	c #888887",
"v 	c #878788",
"w 	c #DBDADA",
"x 	c #DADADB",
"y 	c #B0B1B0",
"z 	c #444444",
"A 	c #B0B0B0",
"B 	c #D9DADA",
"C 	c #DADAD9",
"D 	c #CBCCCB",
"E 	c #878787",
"F 	c #282928",
"G 	c #CCCBCC",
"H 	c #D9D9D9",
"I 	c #D9D9DA",
"J 	c #D9DAD9",
"K 	c #DAD9D9",
"L 	c #CBCBCB",
"M 	c #6C6C6C",
"N 	c #D8D9D9",
"O 	c #D8D9D8",
"P 	c #D9D8D8",
"Q 	c #D8D8D9",
"R 	c #D9D8D9",
"S 	c #D9D9D8",
"T 	c #D8D8D8",
"U 	c #D8D8D7",
"V 	c #D7D8D8",
"W 	c #D8D7D8",
"X 	c #D7D8D7",
"Y 	c #D7D7D7",
"Z 	c #D8D7D7",
"` 	c #D7D7D8",
" .	c #D6D7D7",
"..	c #D6D6D7",
"+.	c #D7D6D7",
"@.	c #D6D6D6",
"#.	c #D6D7D6",
"$.	c #D7D7D6",
"%.	c #D7D6D6",
". + . @ + # . # $ % % . % + @ $ % # # + # & @ # $ ",
"$ * * + * & * * % . + . * # @ . * * # * . $ % @ . ",
"= - = ; * - * - * ; * = ; * - * * * * - * - * * * ",
"> = , = * , > ' ; , ) ' = - ; ; > , - , , - - , = ",
"> , > > > > > > > > > > > , > > > > > > > > > ' > ",
"> ! ~ { ] ] ] ~ > ] ] > { ^ ] > / { { > ] ] ^ > { ",
"~ ! / { ( ~ ( ( _ : < [ } < | 1 ( ! ( ] ! ^ ~ ! ( ",
"2 ! ! ! ! 3 3 1 < 4 5 6 6 5 4 < 1 3 7 7 7 ! ! ! ! ",
"8 ! ! 9 0 7 a < b 6 6 6 6 6 6 b < c ! 2 0 7 7 0 9 ",
"d d 0 0 0 0 e 4 6 6 6 6 6 6 6 6 4 e 9 0 0 0 d 0 0 ",
"0 0 f g f h < 5 6 6 6 6 6 6 6 6 5 i j k 0 l f l f ",
"j m m j m m n 6 6 6 6 6 6 6 6 6 6 o g j l m m k l ",
"p m q m m m o 6 6 6 6 6 6 6 6 6 6 o m m m q p m m ",
"r p m r s t u 5 6 6 6 6 6 6 6 6 5 v t p w w p w r ",
"x s r s s s y z 6 6 6 6 6 6 6 6 z A w s s s t s s ",
"s B C s s s D E b 6 6 6 6 6 6 F E G H s s I B C s ",
"J J J B C C K L E z 5 6 6 5 z E L J J I J I I H K ",
"H H H H H H H H L A E M M E A L H H H H H H H H N ",
"H H O P Q Q Q H R P S P H O Q N N P P O H S N S R ",
"N T T P T T Q T P T Q S T T T O T T T P T T Q T N ",
"U T T T T U U U V U V U U V W T T W T W T T X T V ",
"Y Y Z ` Y V Y Y Y Y X ` T X Y Z W Y X Y Y Y W Z Y ",
"Y Y Y Y Y Y Y Y Y  . .Y Y Y Y Y Y Y Y Y Y Y Y Y Y ",
" ... .+. . .+.+.@. .+.Y Y Y ..+.+.#.#.$.$...Y #.#.",
"@.@.@.@.@...@.@.%.#.%.@.#.@.@.%.@.@. ...@.@.@.@.@."};
