/* XPM */
static char * stick_xpm[] = {
"25 25 104 2",
"  	c None",
". 	c #DFE0DF",
"+ 	c #DFE0E0",
"@ 	c #E0E0DF",
"# 	c #E0E0E0",
"$ 	c #DFDFE0",
"% 	c #E0DFE0",
"& 	c #E0DFDF",
"* 	c #DFDFDF",
"= 	c #DEDFDF",
"- 	c #DFDFDE",
"; 	c #DFDEDF",
"> 	c #DEDEDE",
", 	c #DFDEDE",
"' 	c #DEDEDF",
") 	c #DEDFDE",
"! 	c #DDDDDD",
"~ 	c #DEDEDD",
"{ 	c #DDDEDE",
"] 	c #DEDDDE",
"^ 	c #DDDEDD",
"/ 	c #DDDDDE",
"( 	c #DEDDDD",
"_ 	c #CFCFD0",
": 	c #B3B4B3",
"< 	c #898989",
"[ 	c #6E6E6F",
"} 	c #6E6E6E",
"| 	c #B4B3B4",
"1 	c #CFCFCF",
"2 	c #DCDDDD",
"3 	c #DDDDDC",
"4 	c #454545",
"5 	c #1B1B1B",
"6 	c #000000",
"7 	c #DDDCDD",
"8 	c #DCDDDC",
"9 	c #DCDCDD",
"0 	c #DCDCDC",
"a 	c #CECFCE",
"b 	c #292929",
"c 	c #CFCECE",
"d 	c #DDDCDC",
"e 	c #B2B2B2",
"f 	c #0D0D0D",
"g 	c #282828",
"h 	c #DBDCDC",
"i 	c #DCDBDC",
"j 	c #DCDCDB",
"k 	c #4F4F4F",
"l 	c #909090",
"m 	c #898889",
"n 	c #DBDCDB",
"o 	c #DCDBDB",
"p 	c #DBDBDC",
"q 	c #DBDBDB",
"r 	c #6D6D6E",
"s 	c #D2D2D2",
"t 	c #6D6D6D",
"u 	c #DBDADB",
"v 	c #DBDBDA",
"w 	c #DADBDA",
"x 	c #DADADA",
"y 	c #DADBDB",
"z 	c #888887",
"A 	c #878788",
"B 	c #DBDADA",
"C 	c #DADADB",
"D 	c #B0B1B0",
"E 	c #444444",
"F 	c #B0B0B0",
"G 	c #D9DADA",
"H 	c #DADAD9",
"I 	c #CBCCCB",
"J 	c #878787",
"K 	c #282928",
"L 	c #CCCBCC",
"M 	c #D9D9D9",
"N 	c #D9D9DA",
"O 	c #D9DAD9",
"P 	c #DAD9D9",
"Q 	c #CBCBCB",
"R 	c #6C6C6C",
"S 	c #D8D9D9",
"T 	c #D8D9D8",
"U 	c #D9D8D8",
"V 	c #D8D8D9",
"W 	c #D9D8D9",
"X 	c #D9D9D8",
"Y 	c #D8D8D8",
"Z 	c #D8D8D7",
"` 	c #D7D8D8",
" .	c #D8D7D8",
"..	c #D7D8D7",
"+.	c #D7D7D7",
"@.	c #D8D7D7",
"#.	c #D7D7D8",
"$.	c #D6D7D7",
"%.	c #D6D6D7",
"&.	c #D7D6D7",
"*.	c #D6D6D6",
"=.	c #D6D7D6",
"-.	c #D7D7D6",
";.	c #D7D6D6",
". + . @ + # . # $ % % . % + @ $ % # # + # & @ # $ ",
"$ * * + * & * * % . + . * # @ . * * # * . $ % @ . ",
"= - = ; * - * - * ; * = ; * - * * * * - * - * * * ",
"> = , = * , > ' ; , ) ' = - ; ; > , - , , - - , = ",
"> , > > > > > > > > > > > , > > > > > > > > > ' > ",
"> ! ~ { ] ] ] ~ > ] ] > { ^ ] > / { { > ] ] ^ > { ",
"~ ! / { ( ~ ( ( _ : < [ } < | 1 ( ! ( ] ! ^ ~ ! ( ",
"2 ! ! ! ! 3 3 1 < 4 5 6 6 5 4 < 1 3 7 7 7 ! ! ! ! ",
"8 ! ! 9 0 7 a < b 6 6 6 6 6 6 b < c ! 2 0 7 7 0 9 ",
"d d 0 0 0 0 e 4 6 6 f g g f 6 6 4 e 9 0 0 0 d 0 0 ",
"0 0 h i h j < 5 6 f k l l k f 6 5 m n o 0 p h p h ",
"n q q n q q r 6 6 g l s s l g 6 6 t i n p q q o p ",
"u q v q q q t 6 6 g l s s l g 6 6 t q q q v u q q ",
"w u q w x y z 5 6 f k l l k f 6 5 A y u B B u B w ",
"C x w x x x D E 6 6 f g g f 6 6 E F B x x x y x x ",
"x G H x x x I J b 6 6 6 6 6 6 K J L M x x N G H x ",
"O O O G H H P Q J E 5 6 6 5 E J Q O O N O N N M P ",
"M M M M M M M M Q F J R R J F Q M M M M M M M M S ",
"M M T U V V V M W U X U M T V S S U U T M X S X W ",
"S Y Y U Y Y V Y U Y V X Y Y Y T Y Y Y U Y Y V Y S ",
"Z Y Y Y Y Z Z Z ` Z ` Z Z `  .Y Y  .Y  .Y Y ..Y ` ",
"+.+.@.#.+.` +.+.+.+...#.Y ..+.@. .+...+.+.+. .@.+.",
"+.+.+.+.+.+.+.+.+.$.$.+.+.+.+.+.+.+.+.+.+.+.+.+.+.",
"$.%.$.&.$.$.&.&.*.$.&.+.+.+.%.&.&.=.=.-.-.%.+.=.=.",
"*.*.*.*.*.%.*.*.;.=.;.*.=.*.*.;.*.*.$.%.*.*.*.*.*."};
