/* XPM */
static char * window_xpm[] = {
"1 24 21 1",
" 	c None",
".	c #DFE0DF",
"+	c #DFDFE0",
"@	c #DEDFDF",
"#	c #DEDEDE",
"$	c #DEDEDD",
"%	c #DCDDDD",
"&	c #DCDDDC",
"*	c #DDDCDC",
"=	c #DCDCDC",
"-	c #DBDCDB",
";	c #DBDADB",
">	c #DADBDA",
",	c #DADADB",
"'	c #DADADA",
")	c #D9DAD9",
"!	c #D9D9D9",
"~	c #D8D9D9",
"{	c #D8D8D7",
"]	c #D7D7D7",
"^	c #D6D7D7",
".",
"+",
"@",
"#",
"#",
"#",
"$",
"%",
"&",
"*",
"=",
"-",
";",
">",
",",
"'",
")",
"!",
"!",
"~",
"{",
"]",
"]",
"^"};
