/* XPM */
static char * max_pressed_xpm[] = {
"25 25 135 2",
"  	c None",
". 	c #DFE0DF",
"+ 	c #DFE0E0",
"@ 	c #E0E0DF",
"# 	c #E0E0E0",
"$ 	c #DFDFE0",
"% 	c #E0DFE0",
"& 	c #E0DFDF",
"* 	c #DFDFDF",
"= 	c #DEDFDF",
"- 	c #DFDFDE",
"; 	c #DFDEDF",
"> 	c #DEDEDE",
", 	c #DFDEDE",
"' 	c #DEDEDF",
") 	c #DEDFDE",
"! 	c #DDDDDD",
"~ 	c #DEDEDD",
"{ 	c #DDDEDE",
"] 	c #DEDDDE",
"^ 	c #DDDEDD",
"/ 	c #DDDDDE",
"( 	c #DEDDDD",
"_ 	c #CFCFD0",
": 	c #B3B4B3",
"< 	c #888889",
"[ 	c #6F6F6F",
"} 	c #B4B3B4",
"| 	c #CFCFCF",
"1 	c #DCDDDD",
"2 	c #DDDDDC",
"3 	c #464647",
"4 	c #222428",
"5 	c #10171B",
"6 	c #DDDCDD",
"7 	c #DCDDDC",
"8 	c #DCDCDD",
"9 	c #DCDCDC",
"0 	c #CECFCE",
"a 	c #2C2F33",
"b 	c #1D242C",
"c 	c #3B4B5D",
"d 	c #B7BFC6",
"e 	c #CFCECE",
"f 	c #DDDCDC",
"g 	c #B2B2B2",
"h 	c #46464A",
"i 	c #232D36",
"j 	c #546E8A",
"k 	c #7193B6",
"l 	c #E6E6E6",
"m 	c #DBDCDC",
"n 	c #DCDBDC",
"o 	c #DCDCDB",
"p 	c #888888",
"q 	c #272B31",
"r 	c #46596E",
"s 	c #7799BC",
"t 	c #86AACF",
"u 	c #888788",
"v 	c #DBDCDB",
"w 	c #DCDBDB",
"x 	c #DBDBDC",
"y 	c #DBDBDB",
"z 	c #707070",
"A 	c #232C36",
"B 	c #BCC4CC",
"C 	c #C1C7CE",
"D 	c #DBDADB",
"E 	c #DBDBDA",
"F 	c #BEC6CE",
"G 	c #BAC3CB",
"H 	c #706F70",
"I 	c #DADBDA",
"J 	c #DADADA",
"K 	c #DADBDB",
"L 	c #858587",
"M 	c #343D46",
"N 	c #556A82",
"O 	c #7FA1C4",
"P 	c #89ADD1",
"Q 	c #DBDADA",
"R 	c #DADADB",
"S 	c #B0B1B0",
"T 	c #494C50",
"U 	c #3C4C5D",
"V 	c #6D8BA9",
"W 	c #82A5C7",
"X 	c #E4E4E5",
"Y 	c #84A6C8",
"Z 	c #494B50",
"` 	c #B0B0B0",
" .	c #D9DADA",
"..	c #DADAD9",
"+.	c #CBCCCB",
"@.	c #858586",
"#.	c #383F45",
"$.	c #415364",
"%.	c #5D7790",
"&.	c #BDC7D0",
"*.	c #C6CED5",
"=.	c #383F44",
"-.	c #CCCBCC",
";.	c #D9D9D9",
">.	c #D9D9DA",
",.	c #D9DAD9",
"'.	c #DAD9D9",
").	c #CBCBCB",
"!.	c #484C51",
"~.	c #38444E",
"{.	c #32424F",
"].	c #848487",
"^.	c #848486",
"/.	c #6D7071",
"(.	c #D8D9D9",
"_.	c #D8D9D8",
":.	c #D9D8D8",
"<.	c #D8D8D9",
"[.	c #D9D8D9",
"}.	c #D9D9D8",
"|.	c #D8D8D8",
"1.	c #D8D8D7",
"2.	c #D7D8D8",
"3.	c #D8D7D8",
"4.	c #D7D8D7",
"5.	c #D7D7D7",
"6.	c #D8D7D7",
"7.	c #D7D7D8",
"8.	c #D6D7D7",
"9.	c #D6D6D7",
"0.	c #D7D6D7",
"a.	c #D6D6D6",
"b.	c #D6D7D6",
"c.	c #D7D7D6",
"d.	c #D7D6D6",
". + . @ + # . # $ % % . % + @ $ % # # + # & @ # $ ",
"$ * * + * & * * % . + . * # @ . * * # * . $ % @ . ",
"= - = ; * - * - * ; * = ; * - * * * * - * - * * * ",
"> = , = * , > ' ; , ) ' = - ; ; > , - , , - - , = ",
"> , > > > > > > > > > > > , > > > > > > > > > ' > ",
"> ! ~ { ] ] ] ~ > ] ] > { ^ ] > / { { > ] ] ^ > { ",
"~ ! / { ( ~ ( ( _ : < [ [ < } | ( ! ( ] ! ^ ~ ! ( ",
"1 ! ! ! ! 2 2 | < 3 4 5 5 4 3 < | 2 6 6 6 ! ! ! ! ",
"7 ! ! 8 9 6 0 < a b c d d c b a < e ! 1 9 6 6 9 8 ",
"f f 9 9 9 9 g h i j k l l k j i h g 8 9 9 9 f 9 9 ",
"9 9 m n m o p q r s t l l t s r q u v w 9 x m x m ",
"v y y v y y z A B l l l l l l C A z n v x y y w x ",
"D y E y y y z A F l l l l l l G A H y y y E D y y ",
"I D y I J K L M N O P l l P O N M L K D Q Q D Q I ",
"R J I J J J S T U V W X l Y V U Z ` Q J J J K J J ",
"J  ...J J J +.@.#.$.%.&.*.%.$.=.L -.;.J J >. ...J ",
",.,.,. .....'.).L !.~.{.{.~.!.].).,.,.>.,.>.>.;.'.",
";.;.;.;.;.;.;.;.).` ^././.^.` ).;.;.;.;.;.;.;.;.(.",
";.;._.:.<.<.<.;.[.:.}.:.;._.<.(.(.:.:._.;.}.(.}.[.",
"(.|.|.:.|.|.<.|.:.|.<.}.|.|.|._.|.|.|.:.|.|.<.|.(.",
"1.|.|.|.|.1.1.1.2.1.2.1.1.2.3.|.|.3.|.3.|.|.4.|.2.",
"5.5.6.7.5.2.5.5.5.5.4.7.|.4.5.6.3.5.4.5.5.5.3.6.5.",
"5.5.5.5.5.5.5.5.5.8.8.5.5.5.5.5.5.5.5.5.5.5.5.5.5.",
"8.9.8.0.8.8.0.0.a.8.0.5.5.5.9.0.0.b.b.c.c.9.5.b.b.",
"a.a.a.a.a.9.a.a.d.b.d.a.b.a.a.d.a.a.8.9.a.a.a.a.a."};
