/* XPM */
static char * min_xpm[] = {
"25 25 103 2",
"  	c None",
". 	c #DFE0DF",
"+ 	c #DFE0E0",
"@ 	c #E0E0DF",
"# 	c #E0E0E0",
"$ 	c #DFDFE0",
"% 	c #E0DFE0",
"& 	c #E0DFDF",
"* 	c #DFDFDF",
"= 	c #DEDFDF",
"- 	c #DFDFDE",
"; 	c #DFDEDF",
"> 	c #DEDEDE",
", 	c #DFDEDE",
"' 	c #DEDEDF",
") 	c #DEDFDE",
"! 	c #DDDDDD",
"~ 	c #DEDEDD",
"{ 	c #DDDEDE",
"] 	c #DEDDDE",
"^ 	c #DDDEDD",
"/ 	c #DDDDDE",
"( 	c #DEDDDD",
"_ 	c #CFCFD0",
": 	c #B3B4B3",
"< 	c #898989",
"[ 	c #6E6E6F",
"} 	c #6E6E6E",
"| 	c #B4B3B4",
"1 	c #CFCFCF",
"2 	c #DCDDDD",
"3 	c #DDDDDC",
"4 	c #454545",
"5 	c #1B1B1B",
"6 	c #000000",
"7 	c #DDDCDD",
"8 	c #DCDDDC",
"9 	c #DCDCDD",
"0 	c #DCDCDC",
"a 	c #CECFCE",
"b 	c #292929",
"c 	c #CFCECE",
"d 	c #DDDCDC",
"e 	c #B2B2B2",
"f 	c #DBDCDC",
"g 	c #DCDBDC",
"h 	c #DCDCDB",
"i 	c #898889",
"j 	c #DBDCDB",
"k 	c #DCDBDB",
"l 	c #DBDBDC",
"m 	c #DBDBDB",
"n 	c #6D6D6E",
"o 	c #6D6D6D",
"p 	c #DBDADB",
"q 	c #DBDBDA",
"r 	c #DADBDA",
"s 	c #DADADA",
"t 	c #DADBDB",
"u 	c #888887",
"v 	c #A2A2A2",
"w 	c #E6E6E6",
"x 	c #A9A9A9",
"y 	c #878788",
"z 	c #DBDADA",
"A 	c #DADADB",
"B 	c #B0B1B0",
"C 	c #444444",
"D 	c #9C9C9C",
"E 	c #B0B0B0",
"F 	c #D9DADA",
"G 	c #DADAD9",
"H 	c #CBCCCB",
"I 	c #878787",
"J 	c #282928",
"K 	c #CCCBCC",
"L 	c #D9D9D9",
"M 	c #D9D9DA",
"N 	c #D9DAD9",
"O 	c #DAD9D9",
"P 	c #CBCBCB",
"Q 	c #6C6C6C",
"R 	c #D8D9D9",
"S 	c #D8D9D8",
"T 	c #D9D8D8",
"U 	c #D8D8D9",
"V 	c #D9D8D9",
"W 	c #D9D9D8",
"X 	c #D8D8D8",
"Y 	c #D8D8D7",
"Z 	c #D7D8D8",
"` 	c #D8D7D8",
" .	c #D7D8D7",
"..	c #D7D7D7",
"+.	c #D8D7D7",
"@.	c #D7D7D8",
"#.	c #D6D7D7",
"$.	c #D6D6D7",
"%.	c #D7D6D7",
"&.	c #D6D6D6",
"*.	c #D6D7D6",
"=.	c #D7D7D6",
"-.	c #D7D6D6",
". + . @ + # . # $ % % . % + @ $ % # # + # & @ # $ ",
"$ * * + * & * * % . + . * # @ . * * # * . $ % @ . ",
"= - = ; * - * - * ; * = ; * - * * * * - * - * * * ",
"> = , = * , > ' ; , ) ' = - ; ; > , - , , - - , = ",
"> , > > > > > > > > > > > , > > > > > > > > > ' > ",
"> ! ~ { ] ] ] ~ > ] ] > { ^ ] > / { { > ] ] ^ > { ",
"~ ! / { ( ~ ( ( _ : < [ } < | 1 ( ! ( ] ! ^ ~ ! ( ",
"2 ! ! ! ! 3 3 1 < 4 5 6 6 5 4 < 1 3 7 7 7 ! ! ! ! ",
"8 ! ! 9 0 7 a < b 6 6 6 6 6 6 b < c ! 2 0 7 7 0 9 ",
"d d 0 0 0 0 e 4 6 6 6 6 6 6 6 6 4 e 9 0 0 0 d 0 0 ",
"0 0 f g f h < 5 6 6 6 6 6 6 6 6 5 i j k 0 l f l f ",
"j m m j m m n 6 6 6 6 6 6 6 6 6 6 o g j l m m k l ",
"p m q m m m o 6 6 6 6 6 6 6 6 6 6 o m m m q p m m ",
"r p m r s t u 5 v w w w w w w x 5 y t p z z p z r ",
"A s r s s s B C v w w w w w w D C E z s s s t s s ",
"s F G s s s H I b 6 6 6 6 6 6 J I K L s s M F G s ",
"N N N F G G O P I C 5 6 6 5 C I P N N M N M M L O ",
"L L L L L L L L P E I Q Q I E P L L L L L L L L R ",
"L L S T U U U L V T W T L S U R R T T S L W R W V ",
"R X X T X X U X T X U W X X X S X X X T X X U X R ",
"Y X X X X Y Y Y Z Y Z Y Y Z ` X X ` X ` X X  .X Z ",
"....+.@...Z ........ .@.X  ...+.` .. .......` +...",
"..................#.#.............................",
"#.$.#.%.#.#.%.%.&.#.%.......$.%.%.*.*.=.=.$...*.*.",
"&.&.&.&.&.$.&.&.-.*.-.&.*.&.&.-.&.&.#.$.&.&.&.&.&."};
