/* XPM */
static char * close_xpm[] = {
"16 16 24 1",
" 	c None",
".	c #444444",
"+	c #D3D3D3",
"@	c #D2D2D2",
"#	c #DCDCDC",
"$	c #CACACA",
"%	c #DBDBDB",
"&	c #C4C4C4",
"*	c #DADADA",
"=	c #BCBCBC",
"-	c #D8D8D8",
";	c #BDBDBD",
">	c #B4B4B4",
",	c #D7D7D7",
"'	c #B5B5B5",
")	c #ACACAC",
"!	c #D6D6D6",
"~	c #A4A4A4",
"{	c #D5D5D5",
"]	c #9C9C9C",
"^	c #969696",
"/	c #909090",
"(	c #CDCDCD",
"_	c #888888",
"................",
"................",
"....++....++....",
"...@##@..@##@...",
"..$%%%%$$%%%%$..",
"..&**********&..",
"...=--------;...",
"....>,,,,,,'....",
"....)!!!!!!)....",
"...~{{{{{{{{~...",
"..]++++++++++]..",
"..^@@@@^^@@@@^..",
".../((/../((/...",
"....__....__....",
"................",
"................"};
