/* XPM */
static char * max_xpm[] = {
"16 16 14 1",
" 	c None",
".	c #444444",
"+	c #DDDDDD",
"@	c #DCDCDC",
"#	c #DBDBDB",
"$	c #DADADA",
"%	c #D8D8D8",
"&	c #D7D7D7",
"*	c #D6D6D6",
"=	c #D5D5D5",
"-	c #D3D3D3",
";	c #D2D2D2",
">	c #CDCDCD",
",	c #C9C9C9",
"................",
"................",
"..++++++++++++..",
"..@@@@@@@@@@@@..",
"..############..",
"..$$$$$$$$$$$$..",
"..%%........%%..",
"..&&........&&..",
"..**........**..",
"..==........==..",
"..--........--..",
"..;;........;;..",
"..>>>>>>>>>>>>..",
"..,,,,,,,,,,,,..",
"................",
"................"};
