/* XPM */
static char * shade_xpm[] = {
"16 16 3 1",
" 	c None",
".	c #000000",
"+	c #8EAEF8",
"................",
"................",
"..++++++++++++..",
"..+..........+..",
"..+..........+..",
"..+..++++++..+..",
"..+..++++++..+..",
"..+..........+..",
"..+..........+..",
"..+..........+..",
"..+..........+..",
"..+..........+..",
"..+..........+..",
"..++++++++++++..",
"................",
"................"};
