/* XPM */
static char * toolbar_xpm[] = {
"18 18 2 1",
" 	c #4D575F",
".	c #272C30",
"                  ",
"..................",
"..................",
"..................",
"..................",
"..................",
"..................",
"..................",
"..................",
"..................",
"..................",
"..................",
"..................",
"..................",
"..................",
"..................",
"..................",
".................."};
