/* XPM */
static char * title_xpm[] = {
"7 16 7 1",
" 	c #D2DCE8",
".	c #DDE5EE",
"+	c #E7ECF3",
"@	c #EFF2F7",
"#	c #F5F8FA",
"$	c #FAFBFD",
"%	c #FCFDFE",
"       ",
".......",
"+++++++",
"@@@@@@@",
"#######",
"$$$$$$$",
"%%%%%%%",
"%%%%%%%",
"%%%%%%%",
"%%%%%%%",
"%%%%%%%",
"%%%%%%%",
"%%%%%%%",
"%%%%%%%",
"%%%%%%%",
"%%%%%%%"};
