/* XPM */
static char * window_focus_button_close_xpm[] = {
"20 20 189 2",
"  	c #C7C7C7",
". 	c #F8F8F8",
"+ 	c #EFEFEF",
"@ 	c #E7E7E7",
"# 	c #B8B9BB",
"$ 	c #727375",
"% 	c #393A3C",
"& 	c #141517",
"* 	c #737476",
"= 	c #B9BABC",
"- 	c #E6E6E6",
"; 	c #838486",
"> 	c #303437",
", 	c #494D50",
"' 	c #717578",
") 	c #878B8C",
"! 	c #898A8E",
"~ 	c #747577",
"{ 	c #4B4C4E",
"] 	c #323335",
"^ 	c #848486",
"/ 	c #939297",
"( 	c #28292D",
"_ 	c #53565B",
": 	c #94999D",
"< 	c #CCD1D5",
"[ 	c #E4E9EC",
"} 	c #E5E8ED",
"| 	c #CDD1D4",
"1 	c #94989B",
"2 	c #525657",
"3 	c #28292B",
"4 	c #939496",
"5 	c #E4E4E4",
"6 	c #B6B5BA",
"7 	c #37363B",
"8 	c #2D2E33",
"9 	c #7A7F83",
"0 	c #ACB4B7",
"a 	c #C3C8CE",
"b 	c #C7CCD0",
"c 	c #C3C8CC",
"d 	c #ADB2B6",
"e 	c #7A7E81",
"f 	c #2A2E31",
"g 	c #353638",
"h 	c #B4B5B7",
"i 	c #E2E2E2",
"j 	c #7A797F",
"k 	c #1E1D23",
"l 	c #5C5D62",
"m 	c #72777D",
"n 	c #90999E",
"o 	c #9AA1A9",
"p 	c #A0A7AD",
"q 	c #9AA1A7",
"r 	c #90979D",
"s 	c #71767A",
"t 	c #595E62",
"u 	c #1A1E21",
"v 	c #767A7D",
"w 	c #E0E0E0",
"x 	c #3A393F",
"y 	c #434248",
"z 	c #6D6D75",
"A 	c #7A8189",
"B 	c #858E95",
"C 	c #8A939A",
"D 	c #9099A0",
"E 	c #9299A1",
"F 	c #8C9399",
"G 	c #878E94",
"H 	c #7B8288",
"I 	c #6C7177",
"J 	c #3E4347",
"K 	c #36393E",
"L 	c #DFDFDF",
"M 	c #212026",
"N 	c #68676D",
"O 	c #797981",
"P 	c #8E959D",
"Q 	c #929CA5",
"R 	c #A0AAB3",
"S 	c #A1ACB2",
"T 	c #A3ACB3",
"U 	c #A2ABB2",
"V 	c #969FA6",
"W 	c #767D83",
"X 	c #61696C",
"Y 	c #1C2125",
"Z 	c #DDDDDD",
"` 	c #2D2C31",
" .	c #747378",
"..	c #93969B",
"+.	c #9CA3AB",
"@.	c #A4AEB7",
"#.	c #BBC5CE",
"$.	c #B8C2CB",
"%.	c #BAC3CA",
"&.	c #BFC8CF",
"*.	c #A9B2B9",
"=.	c #A0A9B0",
"-.	c #939AA0",
";.	c #6D747A",
">.	c #282D31",
",.	c #DBDBDB",
"'.	c #545456",
").	c #9B9FA2",
"!.	c #B1B8C0",
"~.	c #BDC7D0",
"{.	c #CAD3DC",
"].	c #CBD4DD",
"^.	c #CBD4DB",
"/.	c #C0C7CF",
"(.	c #B2B9C1",
"_.	c #9EA3A9",
":.	c #83888E",
"<.	c #D8D8D8",
"[.	c #8C8C8C",
"}.	c #6A6A6A",
"|.	c #B6B7B9",
"1.	c #BFC6CC",
"2.	c #CBD5DE",
"3.	c #D0D9E2",
"4.	c #E1EAF1",
"5.	c #E2EBF2",
"6.	c #D2DBE2",
"7.	c #D0D7DF",
"8.	c #C3CAD0",
"9.	c #B6BBC1",
"0.	c #696E72",
"a.	c #8A8D92",
"b.	c #D6D6D6",
"c.	c #C0C0C0",
"d.	c #6B6B6B",
"e.	c #9A9B9D",
"f.	c #BEC5CB",
"g.	c #E5ECF4",
"h.	c #F1F8FF",
"i.	c #F3FAFF",
"j.	c #E8EFF5",
"k.	c #E8EDF3",
"l.	c #C5CAD0",
"m.	c #9A9DA4",
"n.	c #696C71",
"o.	c #BFC0C5",
"p.	c #D4D4D4",
"q.	c #E1E1E1",
"r.	c #A4A4A4",
"s.	c #797A7C",
"t.	c #B4B9BD",
"u.	c #D7DEE4",
"v.	c #E8EFF7",
"w.	c #F2F9FF",
"x.	c #F4FBFF",
"y.	c #EFF4FA",
"z.	c #DFE4EA",
"A.	c #BCBFC4",
"B.	c #777A7F",
"C.	c #A1A5A8",
"D.	c #DCDCDC",
"E.	c #D2D2D2",
"F.	c #D9D9D9",
"G.	c #9FA0A2",
"H.	c #83888C",
"I.	c #E5EAEE",
"J.	c #E6EBEF",
"K.	c #CACDD2",
"L.	c #9A9DA2",
"M.	c #8C8D91",
"N.	c #9FA0A4",
"O.	c #DBDCDE",
"P.	c #DEDEDE",
"Q.	c #CFCFCF",
"R.	c #D5D6D8",
"S.	c #C1C5C8",
"T.	c #A0A5A9",
"U.	c #9C9FA4",
"V.	c #878B8E",
"W.	c #878A8F",
"X.	c #A0A1A5",
"Y.	c #A6A7AB",
"Z.	c #C6C7C9",
"`.	c #D8D9DB",
" +	c #CDCDCD",
".+	c #DADADC",
"++	c #D9D9DB",
"@+	c #CACACA",
"#+	c #929292",
"                                        ",
". . . . . . . . . . . . . . . . . . . . ",
"+ + + + + + + + + + + + + + + + + + + + ",
"@ @ @ @ @ @ # $ % & & % * = @ @ @ @ @ @ ",
"- - - - - ; > , ' ) ! ~ { ] ^ - - - - - ",
"- - - - / ( _ : < [ } | 1 2 3 4 - - - - ",
"5 5 5 6 7 8 9 0 a b b c d e f g h 5 5 5 ",
"i i i j k l m n o p p q r s t u v i i i ",
"w w w x y z A B C D E F G H I J K w w w ",
"L L L M N O P Q R S T U V n W X Y L L L ",
"Z Z Z `  ...+.@.#.$.%.&.*.=.-.;.>.Z Z Z ",
",.,.,.'.^ ).!.~.{.].^.^./.(._.:._ ,.,.,.",
"<.<.<.[.}.|.1.2.3.4.5.6.7.8.9.0.a.<.<.<.",
"b.b.b.c.d.e.f.4.g.h.i.j.k.l.m.n.o.b.b.b.",
"p.p.p.q.r.s.t.u.v.w.x.y.z.A.B.C.D.p.p.p.",
"E.E.E.F.D.G.H.: l.I.J.K.L.M.N.O.P.E.E.E.",
"Q.Q.Q.Q.F.R.S.T.U.V.W.X.Y.Z.R.`.Q.Q.Q.Q.",
" + + + + +.+F.P.- - 5 P.,.<.++ + + + + +",
"@+@+@+@+@+@+@+@+@+@+@+@+@+@+@+@+@+@+@+@+",
"#+#+#+#+#+#+#+#+#+#+#+#+#+#+#+#+#+#+#+#+"};
